# xmcd
#
# Track frame offsets: 
#        150
#        16830
#        33207
#        46631
#        63573
#        78216
#        91283
#        108775
#        127147
#        143264
#        155433
#        169223
#
# Disc length: 2465 seconds
#
# Revision: 0
# Processed by: cddbd v1.5.2PL0 Copyright (c) Steve Scherf et al.
# Submitted via: ExactAudioCopy v0.90b4
#
DISCID=86099f0c
DTITLE=Pokey LaFarge - River Boat Soul
DYEAR=2009
DGENRE=Blues
TTITLE0=La La Blues
TTITLE1=Claude Jones
TTITLE2=Wont Make Love at All
TTITLE3=Hard Times Come and Go
TTITLE4=Two-Faced Tom
TTITLE5=You Dont Want Me
TTITLE6=Sweet Potato Blues
TTITLE7=Bag of Bones
TTITLE8=In the Graveyard Now
TTITLE9=Migraines and Heartpains
TTITLE10=Old Black Dog
TTITLE11=Daffodil Blues
EXTD=
EXTT0=
EXTT1=
EXTT2=
EXTT3=
EXTT4=
EXTT5=
EXTT6=
EXTT7=
EXTT8=
EXTT9=
EXTT10=
EXTT11=
PLAYORDER=
